<?xml version="1.0" standalone="no"?>
<!DOCTYPE svg PUBLIC "-//W3C//DTD SVG 20010904//EN"
 "http://www.w3.org/TR/2001/REC-SVG-20010904/DTD/svg10.dtd">
<svg version="1.0" xmlns="http://www.w3.org/2000/svg"
 width="275.000000pt" height="183.000000pt" viewBox="0 0 275.000000 183.000000"
 preserveAspectRatio="xMidYMid meet">
<metadata>
Created by potrace 1.16, written by Peter Selinger 2001-2019
</metadata>
<g transform="translate(0.000000,183.000000) scale(0.100000,-0.100000)"
fill="#000000" stroke="none">
<path d="M0 914 l0 -915 354 2 c337 1 355 2 359 20 6 22 3 23 -26 8 -22 -10
-22 -10 1 10 22 19 31 38 12 26 -6 -4 -9 11 -8 38 2 37 7 48 33 65 16 12 48
37 70 57 22 19 45 35 50 35 6 0 16 9 23 20 20 33 39 24 40 -20 2 -37 20 -77
49 -107 6 -7 28 -13 47 -13 32 0 36 -2 32 -23 -3 -12 -8 -43 -11 -69 l-6 -48
98 0 c96 0 99 1 138 32 l40 33 -23 -30 -24 -30 178 -3 c98 -1 191 2 206 7 17
6 40 6 60 0 50 -14 225 -12 231 4 3 9 9 9 26 -1 16 -9 117 -12 411 -12 l390 0
0 915 0 915 -390 0 c-214 0 -390 -2 -390 -4 0 -2 16 -13 35 -25 19 -11 35 -27
35 -36 0 -8 5 -15 11 -15 7 0 17 -7 24 -17 9 -13 14 -13 20 -3 6 9 4 11 -6 5
-8 -5 -11 -4 -6 0 9 11 47 14 47 5 0 -10 -115 -110 -149 -131 -32 -20 -46 -37
-56 -69 -8 -26 -45 -76 -90 -120 -14 -14 -25 -30 -25 -36 0 -6 -11 -21 -25
-34 -31 -29 -31 -37 -2 -46 12 -4 25 -12 29 -18 6 -8 8 -7 8 2 0 26 30 12 31
-15 2 -26 2 -27 6 -4 4 19 7 21 14 10 6 -10 9 -10 9 -1 0 7 13 12 29 12 25 0
30 -5 34 -27 l4 -28 2 28 c1 31 23 36 48 12 13 -14 13 -20 -6 -56 -26 -48 -26
-56 -3 -63 15 -5 17 -14 12 -49 -5 -43 -41 -120 -61 -133 -7 -4 -18 0 -24 10
-11 15 -14 14 -28 -6 -9 -13 -16 -18 -16 -11 -1 6 4 15 9 18 6 3 9 18 9 33 -1
17 -3 21 -6 10 -6 -23 -16 -23 -38 2 -17 19 -18 19 -36 -4 -17 -22 -85 -44
-72 -23 3 5 -4 6 -16 2 -17 -5 -21 -2 -21 14 0 11 -5 23 -10 26 -23 14 -7 25
35 25 110 0 147 52 95 133 -15 23 -38 51 -51 62 -15 12 -11 6 9 -18 34 -40 37
-64 9 -59 -10 2 -15 -2 -12 -10 4 -9 -5 -14 -26 -14 -20 -1 -27 1 -18 6 7 5
18 6 24 2 5 -3 4 2 -4 11 -7 9 -17 15 -21 12 -4 -3 -14 3 -21 13 -13 15 -12
16 4 3 18 -14 22 -5 11 23 -8 21 -31 20 -43 -1 -7 -12 -10 -13 -11 -4 0 8 -6
11 -16 7 -9 -4 -13 -2 -8 5 4 6 1 15 -6 19 -7 4 -9 13 -5 20 6 9 9 9 16 -1 6
-10 9 -4 9 17 0 16 -6 39 -14 49 -13 18 -14 17 -9 -10 l6 -30 -26 28 c-26 27
-54 37 -41 15 6 -10 4 -10 -7 0 -7 6 -23 12 -35 12 -12 0 -27 7 -34 15 -12 14
-8 15 30 9 34 -6 42 -4 38 7 -2 8 -19 20 -36 28 -36 17 -42 31 -12 31 12 0 38
-18 59 -40 31 -33 44 -40 63 -35 16 4 32 -1 49 -14 l26 -20 -21 59 -20 58 -19
-31 c-15 -24 -21 -27 -28 -16 -12 20 -11 46 2 55 9 5 10 -1 5 -22 l-6 -29 14
25 c13 22 12 26 -7 39 -15 11 -22 12 -25 3 -2 -7 -8 -12 -13 -12 -6 0 -7 5 -4
10 3 6 1 10 -6 10 -7 0 -21 7 -31 17 -17 15 -18 15 -18 -8 0 -20 2 -21 11 -9
9 13 10 13 6 -1 -3 -9 0 -22 6 -28 15 -15 -4 -14 -23 2 -10 8 -15 31 -15 72 0
77 -9 121 -23 118 -7 -2 -11 0 -11 5 5 32 -3 52 -21 52 -11 0 -19 3 -19 8 3
20 -3 32 -20 41 -16 9 -18 7 -15 -15 2 -19 -1 -23 -10 -15 -7 6 -15 9 -18 6
-7 -8 -68 16 -68 26 0 5 14 2 31 -7 23 -11 34 -13 42 -5 11 11 -3 16 -28 11
-5 -1 -6 2 -2 7 5 4 14 8 19 8 6 0 13 6 16 14 3 10 -3 12 -27 6 -26 -6 -32 -3
-40 17 -6 13 -10 18 -10 11 -1 -12 -18 -12 -38 0 -6 4 -14 3 -18 -3 -3 -5 -16
-8 -29 -4 -13 3 -27 0 -34 -9 -9 -11 -8 -14 3 -14 8 0 11 5 8 10 -4 6 1 8 11
4 10 -4 20 -7 23 -7 2 0 -3 -7 -12 -16 -12 -13 -13 -19 -4 -24 8 -5 4 -10 -12
-15 -13 -5 -42 -19 -64 -33 -38 -23 -39 -24 -20 -3 14 16 15 22 5 19 -8 -2
-14 3 -13 10 2 6 -3 12 -10 12 -9 0 -13 -11 -12 -30 1 -20 -2 -27 -8 -21 -14
14 -37 2 -37 -19 0 -11 -4 -21 -9 -24 -8 -5 -26 -101 -23 -118 1 -5 -3 -7 -10
-5 -12 2 -50 -88 -40 -97 10 -11 -21 -36 -45 -36 -21 0 -23 2 -13 15 7 8 9 23
5 32 -5 14 -11 9 -30 -28 -13 -25 -31 -51 -39 -58 -9 -8 -16 -19 -16 -25 0 -6
-9 -22 -20 -36 -11 -14 -20 -28 -20 -32 0 -4 18 -20 40 -34 35 -24 45 -44 20
-44 -12 0 -64 50 -79 75 -11 18 -11 18 -5 -5 8 -30 1 -25 -21 15 l-17 30 7
-38 c4 -28 2 -39 -9 -43 -13 -5 -13 -10 1 -40 11 -21 24 -34 36 -34 13 0 17
-5 13 -15 -7 -18 2 -18 34 0 46 26 66 16 50 -25 -1 -3 -2 -9 -1 -13 1 -5 -2
-6 -6 -4 -8 5 -104 -88 -98 -95 1 -2 5 -19 9 -38 4 -25 3 -31 -4 -20 -5 8 -10
25 -10 36 0 25 -43 38 -73 23 -21 -12 -40 -2 -30 14 5 9 3 9 -8 0 -12 -10 -16
-6 -25 22 -10 30 -8 34 13 44 21 10 26 7 44 -24 39 -66 30 -35 -16 53 -25 49
-45 102 -45 119 0 18 -5 44 -10 58 -8 22 -5 34 15 70 14 23 34 45 45 48 13 3
17 11 13 25 -2 11 0 23 7 27 7 4 14 -1 17 -14 7 -26 19 -26 61 -1 20 12 32 28
32 41 0 21 -1 21 -24 -6 -24 -27 -24 -27 -41 -8 -19 22 -65 20 -65 -3 0 -13
-12 -18 -32 -15 -5 0 -8 -6 -8 -15 0 -8 5 -12 10 -9 19 12 10 -15 -12 -37 -13
-13 -21 -29 -20 -36 2 -9 -1 -11 -9 -6 -8 4 -10 3 -5 -4 4 -7 2 -12 -4 -12 -6
0 -9 -4 -5 -9 3 -5 0 -13 -6 -17 -8 -4 -9 -3 -5 4 8 14 -27 34 -47 26 -29 -11
-62 -105 -47 -134 7 -13 1 -30 -21 -64 -16 -26 -24 -44 -18 -40 8 4 9 3 5 -4
-4 -7 -11 -12 -15 -12 -9 0 -26 39 -34 75 -3 12 -5 7 -6 -12 -2 -53 -21 -38
-21 16 0 37 -4 50 -17 55 -15 6 -15 8 -3 16 11 7 18 3 28 -15 16 -31 24 -32
13 -2 -6 14 -5 30 1 41 8 14 7 17 -1 12 -6 -4 -11 -4 -11 -1 0 17 125 251 144
270 10 10 15 9 25 -6 6 -11 8 -25 4 -32 -5 -8 -2 -8 9 1 11 9 18 10 23 2 3 -5
3 -10 -2 -10 -4 0 7 -8 25 -17 24 -11 36 -13 44 -5 8 8 5 9 -12 5 -22 -6 -23
-4 -18 51 4 48 10 62 33 82 15 13 32 24 38 24 5 0 7 6 4 13 -3 8 1 14 8 14 10
0 11 -5 5 -17 -5 -10 -6 -21 -2 -25 4 -5 2 -5 -4 -2 -20 12 -65 -61 -62 -99 3
-30 38 -19 38 12 0 13 5 24 10 24 6 0 10 6 10 13 0 7 9 30 20 52 11 22 20 33
20 25 0 -7 2 -11 5 -9 2 3 -2 31 -9 62 -7 31 -9 57 -5 57 5 0 9 -8 9 -18 0
-10 6 -26 13 -36 12 -17 14 -17 20 -2 4 10 1 16 -8 16 -20 0 -19 18 5 63 27
50 25 57 -13 57 -28 0 -40 -8 -68 -42 -97 -122 -155 -205 -219 -318 -29 -52
-58 -98 -64 -102 -5 -3 -10 -16 -11 -28 -1 -13 -9 -26 -18 -31 -9 -5 -14 -18
-12 -29 4 -18 2 -18 -29 -2 -30 16 -45 42 -23 42 5 0 7 13 5 29 -2 17 -1 28 4
25 4 -3 8 3 8 13 1 17 1 17 14 1 12 -16 13 -15 14 12 0 16 9 43 18 60 18 29
11 58 -6 30 -6 -9 -10 -10 -10 -3 0 6 5 15 10 18 6 3 7 18 3 33 -5 23 -4 25 8
15 21 -17 73 16 100 62 12 19 26 35 32 35 6 0 8 3 4 6 -3 3 8 19 24 35 16 15
29 32 29 37 0 5 9 17 20 27 11 10 20 23 20 28 0 6 7 19 16 28 16 18 4 18 -305
19 l-321 0 0 -916z m1364 630 c3 -8 -6 -20 -24 -29 -17 -9 -30 -23 -30 -31 0
-14 3 -14 15 -4 12 10 15 10 15 0 0 -8 9 -11 25 -7 25 4 25 3 9 -14 -9 -11
-17 -34 -18 -51 -1 -32 -2 -33 -46 -34 -52 -2 -67 7 -65 38 1 13 -5 28 -14 35
-14 11 -14 12 2 13 10 0 15 5 12 10 -4 6 5 10 20 10 31 0 30 23 -1 29 -23 4
-34 19 -27 39 4 10 16 13 44 8 21 -3 40 -2 44 4 7 12 32 2 39 -16z m-150 -168
c-9 -39 18 -59 83 -61 79 -3 98 11 97 70 -1 52 9 57 31 15 9 -16 11 -30 6 -30
-9 0 -6 -42 5 -64 3 -6 -2 -2 -10 8 -15 19 -16 18 -22 -12 -5 -23 -14 -34 -37
-41 -41 -15 -93 -14 -109 2 -8 6 -24 18 -36 24 -19 12 -22 10 -28 -12 -7 -27
-34 -35 -34 -9 0 8 4 13 9 9 20 -12 23 18 5 50 -17 33 -17 36 0 72 17 35 19
37 32 19 7 -11 11 -29 8 -40z m1346 -82 c0 -45 -28 -131 -57 -175 -14 -22 -27
-39 -28 -39 -1 0 0 22 3 48 3 38 0 52 -14 67 -13 13 -15 20 -6 23 7 2 10 7 7
12 -3 5 2 15 10 24 16 15 4 33 -15 21 -5 -3 -10 -1 -10 4 0 6 6 11 13 11 7 0
28 13 47 29 39 32 50 26 50 -25z m-240 -12 c0 -10 -4 -22 -9 -27 -12 -13 -17
-67 -7 -83 7 -11 -27 -51 -45 -52 -3 0 -14 -18 -24 -39 -12 -28 -31 -47 -69
-67 -91 -51 -86 -53 -86 27 0 38 7 101 16 139 15 69 16 70 57 81 39 11 143 36
160 38 4 1 7 -7 7 -17z m-1129 -94 c3 -24 6 -53 10 -77 3 -20 -2 -27 -28 -38
-20 -8 -33 -9 -33 -3 0 5 5 10 10 10 6 0 10 9 10 20 0 11 -5 20 -11 20 -5 0
-8 -4 -4 -9 3 -5 1 -13 -5 -16 -7 -4 -8 -23 -4 -51 3 -24 4 -44 1 -44 -19 0
-37 15 -37 30 0 13 -11 20 -36 25 -21 3 -40 3 -43 -2 -3 -5 -19 -9 -34 -8 -25
0 -28 3 -24 28 l4 27 -25 -22 c-21 -19 -24 -20 -19 -5 6 15 3 17 -13 12 -30
-9 -24 10 11 39 33 28 49 32 66 15 5 -5 24 -11 42 -11 35 -1 35 -2 21 -28 -14
-25 13 -34 28 -9 7 10 22 19 33 19 15 0 19 5 15 16 -3 8 -2 12 4 9 15 -10 32
5 22 18 -18 23 -10 47 15 47 13 0 24 -6 24 -12z m-646 -76 c4 -20 12 -50 20
-67 12 -29 35 -107 36 -122 2 -32 -83 33 -132 100 l-28 39 37 59 c41 66 53 64
67 -9z m1084 -9 c19 -11 35 -30 40 -48 9 -33 6 -40 -25 -49 -17 -5 -23 -1 -31
26 -7 27 -14 32 -33 30 -32 -3 -35 -8 -17 -26 17 -17 32 -71 23 -84 -3 -5 -16
-7 -29 -5 -26 5 -37 -15 -37 -69 0 -22 -5 -28 -22 -28 -21 0 -23 4 -21 52 3
73 7 89 27 100 13 8 21 7 27 -3 10 -16 12 -6 9 53 -1 29 2 36 17 35 12 -2 17
4 15 16 -2 10 3 17 12 17 8 0 28 -8 45 -17z m266 -579 c9 -15 12 -24 7 -20 -6
3 -13 2 -16 -3 -7 -10 22 -24 34 -16 4 2 28 -18 54 -46 38 -41 46 -56 45 -87
0 -20 -4 -46 -8 -57 -6 -14 -2 -24 16 -38 12 -10 23 -25 23 -33 0 -8 7 -14 16
-14 9 0 12 -5 8 -12 -4 -6 -3 -8 3 -5 12 8 45 -58 48 -95 l2 -28 -30 18 c-17
9 -39 33 -50 52 -24 44 -41 63 -31 35 4 -11 17 -33 29 -50 39 -53 77 -137 40
-89 -12 15 -16 16 -24 5 -13 -19 -83 -20 -86 -1 -17 91 -17 100 -2 100 8 0 30
-12 49 -27 36 -30 27 -14 -26 47 -17 19 -23 28 -13 21 30 -23 19 6 -12 32 -17
14 -27 28 -24 31 4 3 -3 16 -14 29 -11 12 -25 36 -31 52 -17 45 -34 143 -28
154 4 5 2 12 -4 16 -8 5 -8 28 -1 53 2 7 10 -1 26 -24z m125 -10 c0 -31 34
-158 38 -141 2 12 13 17 37 17 33 0 33 0 24 37 -13 58 -3 51 17 -11 10 -31 20
-52 23 -48 9 14 52 34 59 28 3 -3 1 -6 -4 -6 -18 -1 -46 -29 -39 -40 5 -8 15
-4 31 11 13 12 24 18 24 12 0 -5 -9 -18 -20 -28 -11 -10 -20 -25 -20 -34 -1
-11 -6 -8 -16 9 -14 23 -13 12 3 -27 3 -8 -2 -13 -12 -13 -12 0 -15 -5 -11
-16 8 -21 -21 -54 -46 -54 -22 0 -38 34 -68 144 -27 96 -40 176 -29 176 5 0 9
-7 9 -16z"/>
</g>
</svg>
